<svg xmlns="http://www.w3.org/2000/svg" viewBox="0 0 136 58"><defs><style>.cls-1{fill:#e40425;}.cls-2{fill:#fff;}</style></defs><g id="Layer_2" data-name="Layer 2"><g id="Capa_1" data-name="Capa 1"><rect class="cls-1" x="83.12" y="53.54" width="52.88" height="4.46" rx="1.8"/><path class="cls-2" d="M87,55.07a.34.34,0,0,1,.32-.26.36.36,0,0,1,.34.24l.39,1.33h0l.39-1.33a.36.36,0,0,1,.33-.24.34.34,0,0,1,.33.26l.3,1.87a.13.13,0,0,1,0,.06.24.24,0,0,1-.24.24c-.17,0-.24-.08-.26-.24l-.19-1.36h0l-.4,1.4a.25.25,0,0,1-.26.2.27.27,0,0,1-.27-.2l-.39-1.4h0L87.21,57c0,.16-.09.24-.26.24a.24.24,0,0,1-.24-.24v-.06Z"/><path class="cls-2" d="M90.5,55.07a.37.37,0,0,1,.35-.28.36.36,0,0,1,.35.28l.65,1.82a.45.45,0,0,1,0,.13.22.22,0,0,1-.23.22.23.23,0,0,1-.24-.18l-.1-.31h-.92l-.1.31a.23.23,0,0,1-.24.18.24.24,0,0,1-.24-.24.75.75,0,0,1,0-.11Zm.45-1,.12,0a.21.21,0,0,1,.18.21.19.19,0,0,1-.14.2l-.37.15c-.09,0-.06,0-.13,0s-.17-.13-.17-.25a.15.15,0,0,1,.09-.13h0Zm-.42,2.16h.63l-.31-1h0Z"/><path class="cls-2" d="M94,57.11a1.23,1.23,0,0,1-.59.15A1.24,1.24,0,1,1,94.51,56a1.33,1.33,0,0,1-.22.78l.19.16a.27.27,0,0,1,.11.21.23.23,0,0,1-.22.21.33.33,0,0,1-.23-.11Zm0-.66A1.14,1.14,0,0,0,94,56c0-.4-.21-.77-.63-.77s-.62.37-.62.77.21.77.62.77l.22,0-.12-.12a.17.17,0,0,1-.07-.13.23.23,0,0,1,.23-.24.16.16,0,0,1,.12,0Z"/><path class="cls-2" d="M95,55.07a.25.25,0,1,1,.5,0v1.17a.5.5,0,0,0,.51.55.51.51,0,0,0,.5-.55V55.07a.25.25,0,1,1,.5,0v1.2a1,1,0,0,1-2,0Z"/><path class="cls-2" d="M97.57,55.07a.25.25,0,1,1,.5,0V57a.25.25,0,1,1-.5,0Z"/><path class="cls-2" d="M98.65,55.07a.23.23,0,0,1,.24-.26.29.29,0,0,1,.21.11l1.05,1.42h0V55.07a.23.23,0,0,1,.24-.26.23.23,0,0,1,.25.26V57a.24.24,0,0,1-.25.26.33.33,0,0,1-.21-.11l-1-1.4h0V57a.24.24,0,0,1-.25.26.24.24,0,0,1-.24-.26Z"/><path class="cls-2" d="M101.77,55.07a.39.39,0,0,1,.35-.28.38.38,0,0,1,.36.28l.65,1.82a.37.37,0,0,1,0,.13.22.22,0,0,1-.23.22.25.25,0,0,1-.24-.18l-.1-.31h-.91l-.1.31a.25.25,0,0,1-.24.18.24.24,0,0,1-.22-.35Zm0,1.21h.62l-.3-1h0Z"/><path class="cls-2" d="M105,55.13a.23.23,0,0,1-.23.24c-.13,0-.24-.1-.44-.1a.24.24,0,0,0-.27.22c0,.35,1.11.12,1.11,1a.79.79,0,0,1-.85.78c-.25,0-.8-.06-.8-.38a.22.22,0,0,1,.22-.24c.16,0,.34.13.56.13s.33-.12.33-.28c0-.4-1.1-.16-1.1-.94a.77.77,0,0,1,.82-.76C104.53,54.79,105,54.86,105,55.13Z"/><path class="cls-2" d="M107.41,56.27a.26.26,0,1,1-.51,0,.26.26,0,1,1,.51,0Z"/><path class="cls-2" d="M109.23,55.07a.23.23,0,0,1,.24-.26.24.24,0,0,1,.25.26v.71h1v-.71a.23.23,0,0,1,.25-.26.23.23,0,0,1,.24.26V57a.25.25,0,1,1-.49,0v-.74h-1V57a.24.24,0,0,1-.25.26.24.24,0,0,1-.24-.26Z"/><path class="cls-2" d="M111.85,55.12c0-.17.08-.29.26-.29h.82a.23.23,0,0,1,0,.46h-.59v.49h.55a.23.23,0,1,1,0,.46h-.55v.51H113a.23.23,0,0,1,.23.24.23.23,0,0,1-.23.23h-.86a.24.24,0,0,1-.25-.25Z"/><path class="cls-2" d="M113.68,55.09a.23.23,0,0,1,.25-.26h.58c.51,0,.82.23.82.76a.64.64,0,0,1-.61.63l.56.61a.21.21,0,0,1,.07.15.26.26,0,0,1-.25.26.26.26,0,0,1-.19-.09l-.73-.9h0V57a.25.25,0,1,1-.49,0Zm.49.8h.34a.3.3,0,1,0,0-.6h-.34Z"/><path class="cls-2" d="M115.81,55.09a.23.23,0,0,1,.25-.26h.59c.51,0,.82.23.82.76a.64.64,0,0,1-.61.63l.56.61a.21.21,0,0,1,.07.15.25.25,0,0,1-.44.17l-.74-.9h0V57a.25.25,0,1,1-.5,0Zm.5.8h.34a.3.3,0,1,0,0-.6h-.34Z"/><path class="cls-2" d="M118.49,55.07a.39.39,0,0,1,.35-.28.38.38,0,0,1,.36.28l.64,1.82a.45.45,0,0,1,0,.13.22.22,0,0,1-.23.22.24.24,0,0,1-.24-.18l-.1-.31h-.92l-.09.31a.25.25,0,0,1-.24.18.24.24,0,0,1-.22-.35Zm0,1.21h.62l-.3-1h0Z"/><path class="cls-2" d="M120.57,55.07a.33.33,0,0,1,.32-.26.36.36,0,0,1,.33.24l.39,1.33h0l.39-1.33a.34.34,0,0,1,.33-.24.34.34,0,0,1,.32.26l.31,1.87V57a.24.24,0,0,1-.24.24c-.17,0-.23-.08-.25-.24l-.2-1.36h0l-.39,1.4a.27.27,0,0,1-.27.2.25.25,0,0,1-.26-.2l-.4-1.4h0l-.2,1.36c0,.16-.09.24-.26.24a.24.24,0,0,1-.24-.24.13.13,0,0,1,0-.06Z"/><path class="cls-2" d="M123.5,55.07a.23.23,0,0,1,.24-.26.23.23,0,0,1,.25.26V57a.25.25,0,1,1-.49,0Z"/><path class="cls-2" d="M124.59,55.12c0-.17.08-.29.25-.29h.82a.23.23,0,1,1,0,.46h-.58v.49h.54a.23.23,0,1,1,0,.46h-.54v.51h.61a.24.24,0,1,1,0,.47h-.85a.24.24,0,0,1-.25-.25Z"/><path class="cls-2" d="M126.39,55.07a.24.24,0,0,1,.25-.26.31.31,0,0,1,.21.11l1.05,1.42h0V55.07a.25.25,0,1,1,.5,0V57a.24.24,0,0,1-.25.26.33.33,0,0,1-.21-.11l-1-1.4h0V57a.25.25,0,1,1-.5,0Z"/><path class="cls-2" d="M129.37,55.29H129a.21.21,0,0,1-.22-.23.22.22,0,0,1,.22-.23h1.22a.22.22,0,0,1,.22.23.21.21,0,0,1-.22.23h-.36V57a.25.25,0,1,1-.5,0Z"/><path class="cls-2" d="M131.1,55.07a.37.37,0,0,1,.71,0l.64,1.82a.45.45,0,0,1,0,.13.22.22,0,0,1-.23.22.23.23,0,0,1-.24-.18l-.1-.31H131l-.1.31a.23.23,0,0,1-.23.18.24.24,0,0,1-.25-.24.24.24,0,0,1,0-.11Zm0,1.21h.62l-.3-1h0Z"/><path d="M33,31.56a17.1,17.1,0,0,0,2.45,8.7,16.72,16.72,0,0,0,2.94,3.62,6.54,6.54,0,0,0,.89.78c.31.24.61.5.94.73a18,18,0,0,0,11.42,3.15A18.4,18.4,0,0,0,61,45.07a19.61,19.61,0,0,0,7.68-18.75,20.31,20.31,0,0,0-4.46-10.08,20.91,20.91,0,0,0-9.26-6.45h0a1.21,1.21,0,0,1-.74-1.53,1.2,1.2,0,0,1,1.39-.79,23.88,23.88,0,0,1,11.26,6.27,24.66,24.66,0,0,1,6.55,11.58,26.48,26.48,0,0,1,.79,6.83A27.69,27.69,0,0,1,73,39,26.12,26.12,0,0,1,52.82,57.09a26.44,26.44,0,0,1-14.43-1.41A28.59,28.59,0,0,1,35,54.11c-.55-.31-1.07-.65-1.6-1A11.71,11.71,0,0,1,31.89,52a27.21,27.21,0,0,1-5.38-5.34,28.93,28.93,0,0,1-5.67-14.25l0-.26A6.12,6.12,0,1,1,33,30.87C33,31.1,33,31.34,33,31.56Z"/><path class="cls-1" d="M41.14,31.88a17,17,0,0,0-2.45-8.7,17.22,17.22,0,0,0-2.94-3.62,6.56,6.56,0,0,0-.89-.77c-.31-.24-.61-.51-.93-.74a20.13,20.13,0,0,0-2.05-1.22,17.42,17.42,0,0,0-9.37-1.92,18.26,18.26,0,0,0-9.3,3.46A19.6,19.6,0,0,0,5.52,37.12,20.38,20.38,0,0,0,10,47.21a20.87,20.87,0,0,0,9.27,6.44h0A1.22,1.22,0,0,1,20,55.19,1.18,1.18,0,0,1,18.6,56,23.72,23.72,0,0,1,7.35,49.7,24.54,24.54,0,0,1,.79,38.12,26.35,26.35,0,0,1,0,31.3a27.76,27.76,0,0,1,1.11-6.87A26.17,26.17,0,0,1,21.33,6.35,26.63,26.63,0,0,1,35.76,7.76a28,28,0,0,1,3.38,1.58c.54.3,1.06.65,1.59,1a12.54,12.54,0,0,1,1.54,1.08,27.71,27.71,0,0,1,5.37,5.34A28.87,28.87,0,0,1,53.31,31l0,.25a6.12,6.12,0,1,1-12.16,1.32A5.32,5.32,0,0,1,41.14,31.88Z"/><path d="M7.14,32.52c-.19,0-.15.35-.15.35C7.17,38,9.32,49.76,24.81,52.68c0,0,3.23.64,2.7-.94-.18-.53-.92-1.06-1.38-1.55a4.4,4.4,0,0,0-2.85-1.27C19.18,48.49,9.71,46,7.36,32.77,7.36,32.77,7.36,32.48,7.14,32.52Z"/><path class="cls-1" d="M67,30.93c.18,0,.15-.35.15-.35-.19-5.12-2.34-16.9-17.83-19.81,0,0-3.23-.64-2.7.93.18.54.92,1.06,1.38,1.55a4.38,4.38,0,0,0,2.85,1.28C55,15,64.44,17.4,66.79,30.67,66.79,30.67,66.79,31,67,30.93Z"/><path d="M111.26,0h6.47V12.71a20.94,20.94,0,0,1-.11,2.22h.11a10,10,0,0,1,9-5.22c5.75,0,9,3,9,10V36.67h-6.41V21.07c0-3.2-.82-5.37-4.13-5.37a7.32,7.32,0,0,0-7,5.48,12.16,12.16,0,0,0-.4,3.4V36.67h-6.47Z"/><path d="M94.79,45.23c4,0,7.33-1.7,7.33-6.4V37.28a12.07,12.07,0,0,1,.11-1.4h-.11c-1.52,2.33-3.76,3.57-7.23,3.57-7.43,0-11.66-6.1-11.66-13.33S87.25,13,94.74,13c5.65,0,7.69,3.36,7.69,3.36h.15a5,5,0,0,1,0-.72v-2h6.06V38.36c0,9-6.92,12.45-13.7,12.45a20.45,20.45,0,0,1-9.21-2.27l1.93-5A17.3,17.3,0,0,0,94.79,45.23Zm7.49-19.06c0-6-2.91-7.59-6.42-7.59-3.92,0-6.11,2.89-6.11,7.33,0,4.6,2.34,8,6.52,8C99.37,33.92,102.28,32.11,102.28,26.17Z"/><path d="M115.29,42.53c0,1.47-.65,2.21-2,2.21a2.18,2.18,0,0,1-1.34-.38,1.2,1.2,0,0,1-.49-1h.83c0,.5.33.75,1,.75a1.13,1.13,0,0,0,.86-.31,1.77,1.77,0,0,0,.31-1.23v-.23a1.68,1.68,0,0,1-2.66,0,2.81,2.81,0,0,1-.49-1.72,2.72,2.72,0,0,1,.55-1.78,1.67,1.67,0,0,1,1.36-.65,1.8,1.8,0,0,1,1.24.45V38.3h.8Zm-.8-1V39.39a1.6,1.6,0,0,0-1.19-.56.94.94,0,0,0-.82.45,3,3,0,0,0,0,2.63.93.93,0,0,0,.81.44A1.52,1.52,0,0,0,114.49,41.56Z"/><path d="M119.39,39a2,2,0,0,0-.49,0,1.26,1.26,0,0,0-1.05.65v3.24H117V38.3h.81v.64A1.42,1.42,0,0,1,119,38.2l.37,0Z"/><path d="M123.38,42.3A1.76,1.76,0,0,1,122,43c-1,0-1.53-.57-1.53-1.69v-3h.8v3a1.3,1.3,0,0,0,.2.81.79.79,0,0,0,.65.25,1.59,1.59,0,0,0,1.23-.74V38.3h.8v4.58h-.8Z"/><path d="M126.73,38.85A1.61,1.61,0,0,1,128,38.2a1.66,1.66,0,0,1,1.38.63,2.81,2.81,0,0,1,.48,1.72,2.68,2.68,0,0,1-.54,1.78A1.7,1.7,0,0,1,128,43a1.76,1.76,0,0,1-1.24-.46v2.11h-.8V38.3h.8Zm0,2.94a1.6,1.6,0,0,0,1.19.56.94.94,0,0,0,.82-.45,3,3,0,0,0,0-2.63.92.92,0,0,0-.81-.44,1.53,1.53,0,0,0-1.22.79Z"/><path d="M133.18,38.2a2,2,0,0,1,1.54.62,3,3,0,0,1,0,3.54,2,2,0,0,1-1.54.63,2,2,0,0,1-1.54-.63,3,3,0,0,1,0-3.54A2,2,0,0,1,133.18,38.2Zm0,4.15a1.16,1.16,0,0,0,.93-.44,2.6,2.6,0,0,0,0-2.64,1.21,1.21,0,0,0-1.87,0,2.66,2.66,0,0,0,0,2.64A1.16,1.16,0,0,0,133.18,42.35Z"/><path d="M112.43,47.3a1.78,1.78,0,0,1,1.35-.68q1.53,0,1.53,1.68v3h-.8v-3a1.34,1.34,0,0,0-.2-.81.8.8,0,0,0-.65-.24,1.67,1.67,0,0,0-1.23.73V51.3h-.8V45h.8Z"/><path d="M117.85,45.85H117V45h.81Zm0,5.45H117V46.72h.81Z"/><path d="M121.63,49.4h-2.34v-.78h2.34Z"/><path d="M124.82,51.31a3.27,3.27,0,0,1-.57,0,1.21,1.21,0,0,1-.73-.18.77.77,0,0,1-.28-.46,3.75,3.75,0,0,1-.06-.76v-2.6h-.55v-.64h.55V45.58h.8v1.14h.74v.64H124V50a1,1,0,0,0,.12.6.44.44,0,0,0,.32.13,1.7,1.7,0,0,0,.4,0Z"/><path d="M128,51.41a2.1,2.1,0,0,1-1.6-.63,2.44,2.44,0,0,1-.61-1.77,2.51,2.51,0,0,1,.59-1.76,2,2,0,0,1,1.53-.63,2,2,0,0,1,1.54.62A2.5,2.5,0,0,1,130,49v.2h-3.4a1.79,1.79,0,0,0,.43,1.18,1.29,1.29,0,0,0,.94.38,1.35,1.35,0,0,0,.76-.22.73.73,0,0,0,.35-.62h.83a1.5,1.5,0,0,1-.63,1.09A2.18,2.18,0,0,1,128,51.41Zm1.18-2.84a1.63,1.63,0,0,0-.44-1,1.13,1.13,0,0,0-.83-.33,1.16,1.16,0,0,0-.83.33,1.63,1.63,0,0,0-.44,1Z"/><path d="M133.3,51.41a2,2,0,0,1-1.53-.63,3,3,0,0,1,0-3.54,2,2,0,0,1,1.53-.62,1.93,1.93,0,0,1,1.24.38,1.56,1.56,0,0,1,.59,1.09h-.83a.76.76,0,0,0-.3-.62,1.12,1.12,0,0,0-.7-.22,1.16,1.16,0,0,0-.93.44,2.6,2.6,0,0,0,0,2.64,1.16,1.16,0,0,0,.93.44,1.12,1.12,0,0,0,.7-.22.76.76,0,0,0,.3-.62h.83a1.56,1.56,0,0,1-.59,1.1A2,2,0,0,1,133.3,51.41Z"/></g></g></svg>